<?xml version="1.0" encoding="iso-8859-1"?>
<!-- Generator: Adobe Illustrator 28.2.0, SVG Export Plug-In . SVG Version: 6.00 Build 0)  -->
<svg version="1.1" id="Layer_1" xmlns="http://www.w3.org/2000/svg" xmlns:xlink="http://www.w3.org/1999/xlink" x="0px" y="0px"
	 viewBox="0 0 2560 1538" style="enable-background:new 0 0 2560 1538;" xml:space="preserve">
<rect x="0" y="0" style="fill:#FFFFFF;" width="2560" height="1538"/>
<g>
	<g>
		<g>
			<path style="fill:#262626;" d="M933.986,836.486V709.03h20.939v127.456H933.986z M948.37,836.486v-19.119h66.643v19.119H948.37z"
				/>
			<path style="fill:#262626;" d="M1069.089,838.307c-8.739,0-16.6-1.972-23.579-5.918c-6.981-3.944-12.504-9.378-16.57-16.296
				c-4.069-6.919-6.099-14.686-6.099-23.306c0-8.618,2.004-16.356,6.008-23.215c4.007-6.857,9.436-12.291,16.296-16.296
				c6.857-4.006,14.475-6.009,22.852-6.009c8.13,0,15.324,1.884,21.577,5.644c6.25,3.765,11.166,8.922,14.748,15.477
				c3.579,6.555,5.372,14.02,5.372,22.396c0,1.457-0.091,2.944-0.273,4.461c-0.183,1.519-0.456,3.186-0.819,5.008h-71.74v-16.387
				h61.362l-7.465,6.555c-0.246-5.34-1.275-9.832-3.095-13.474c-1.821-3.642-4.401-6.432-7.739-8.375
				c-3.34-1.941-7.437-2.914-12.291-2.914c-5.098,0-9.53,1.093-13.291,3.277c-3.764,2.185-6.678,5.252-8.74,9.195
				c-2.065,3.946-3.094,8.649-3.094,14.112c0,5.462,1.091,10.259,3.277,14.384c2.184,4.129,5.28,7.315,9.285,9.559
				c4.006,2.247,8.617,3.369,13.838,3.369c4.49,0,8.649-0.788,12.473-2.367c3.823-1.576,7.071-3.883,9.741-6.919l12.746,12.927
				c-4.25,4.979-9.408,8.74-15.478,11.289C1082.318,837.032,1075.887,838.307,1069.089,838.307z"/>
			<path style="fill:#262626;" d="M1162.313,838.307c-7.891,0-15.021-2.003-21.394-6.009c-6.373-4.006-11.412-9.437-15.114-16.296
				c-3.704-6.857-5.552-14.535-5.552-23.034c0-8.617,1.849-16.356,5.552-23.215c3.702-6.857,8.741-12.319,15.114-16.387
				c6.373-4.066,13.502-6.1,21.394-6.1c6.675,0,12.592,1.428,17.753,4.279c5.158,2.854,9.255,6.769,12.291,11.744
				c3.031,4.979,4.551,10.623,4.551,16.934v25.127c0,6.313-1.488,11.958-4.46,16.934c-2.977,4.978-7.073,8.893-12.291,11.744
				C1174.936,836.878,1168.988,838.307,1162.313,838.307z M1165.591,819.37c7.402,0,13.383-2.486,17.934-7.465
				c4.552-4.976,6.829-11.349,6.829-19.119c0-5.218-1.033-9.833-3.096-13.838c-2.065-4.006-4.947-7.129-8.649-9.377
				c-3.704-2.245-8.042-3.368-13.018-3.368c-4.857,0-9.134,1.123-12.837,3.368c-3.705,2.247-6.618,5.371-8.74,9.377
				c-2.125,4.006-3.186,8.62-3.186,13.838c0,5.221,1.061,9.833,3.186,13.838c2.122,4.006,5.035,7.133,8.74,9.378
				C1156.456,818.249,1160.734,819.37,1165.591,819.37z M1189.08,836.486v-23.489l3.459-21.303l-3.459-21.121v-21.486h20.027v87.398
				H1189.08z"/>
			<path style="fill:#262626;" d="M1267.917,838.307c-7.891,0-15.021-2.003-21.393-6.009c-6.373-4.006-11.412-9.437-15.114-16.296
				c-3.704-6.857-5.552-14.535-5.552-23.034c0-8.617,1.849-16.356,5.552-23.215c3.702-6.857,8.741-12.319,15.114-16.387
				c6.373-4.066,13.502-6.1,21.393-6.1c6.675,0,12.592,1.428,17.753,4.279c5.158,2.854,9.255,6.769,12.291,11.744
				c3.031,4.979,4.551,10.623,4.551,16.934v25.127c0,6.313-1.488,11.958-4.46,16.934c-2.977,4.978-7.073,8.893-12.291,11.744
				C1280.54,836.878,1274.593,838.307,1267.917,838.307z M1271.195,819.37c4.976,0,9.315-1.121,13.018-3.368
				c3.702-2.245,6.584-5.372,8.649-9.378c2.062-4.005,3.096-8.617,3.096-13.838c0-5.218-1.033-9.833-3.096-13.838
				c-2.065-4.006-4.947-7.129-8.649-9.377c-3.704-2.245-8.042-3.368-13.018-3.368c-4.857,0-9.134,1.123-12.837,3.368
				c-3.705,2.247-6.617,5.371-8.74,9.377c-2.125,4.006-3.187,8.62-3.187,13.838c0,5.221,1.061,9.833,3.187,13.838
				c2.122,4.006,5.035,7.133,8.74,9.378C1262.061,818.249,1266.338,819.37,1271.195,819.37z M1314.712,836.486h-20.028v-23.489
				l3.459-21.303l-3.459-21.121v-65.185h20.028V836.486z"/>
			<path style="fill:#262626;" d="M1339.655,836.486V709.03h20.939v127.456H1339.655z M1354.04,836.486v-18.208h36.599
				c6.432,0,11.408-2.003,14.93-6.009c3.519-4.006,5.28-8.618,5.28-13.838c0-3.519-0.79-6.797-2.366-9.832
				c-1.58-3.033-3.887-5.463-6.92-7.284c-3.035-1.82-6.676-2.731-10.924-2.731h-36.599v-18.208h33.503
				c5.461,0,9.832-1.394,13.109-4.188c3.277-2.792,4.916-6.92,4.916-12.382c0-5.463-1.639-9.588-4.916-12.382
				c-3.277-2.791-7.648-4.188-13.109-4.188h-33.503V709.03h34.048c8.618,0,15.779,1.579,21.486,4.734
				c5.703,3.158,9.951,7.224,12.746,12.199c2.791,4.979,4.188,10.319,4.188,16.023c0,6.678-1.853,12.564-5.554,17.662
				c-3.704,5.098-9.136,9.227-16.296,12.382l1.639-6.555c8.011,3.277,14.263,7.892,18.754,13.838
				c4.49,5.949,6.736,12.928,6.736,20.94c0,6.555-1.609,12.563-4.825,18.026c-3.216,5.462-7.95,9.863-14.201,13.201
				c-6.254,3.339-13.929,5.007-23.034,5.007H1354.04z"/>
			<path style="fill:#262626;" d="M1486.047,838.307c-7.406,0-13.991-1.639-19.756-4.917c-5.767-3.277-10.258-7.798-13.474-13.565
				c-3.217-5.763-4.825-12.41-4.825-19.937v-50.801h20.029v49.89c0,4.251,0.696,7.861,2.094,10.834
				c1.393,2.976,3.459,5.252,6.191,6.828c2.731,1.579,5.977,2.367,9.741,2.367c5.826,0,10.286-1.73,13.382-5.189
				c3.095-3.459,4.643-8.404,4.643-14.84v-49.89h20.029v50.801c0,7.647-1.611,14.356-4.825,20.12
				c-3.217,5.767-7.679,10.259-13.383,13.474C1500.185,836.696,1493.572,838.307,1486.047,838.307z"/>
			<path style="fill:#262626;" d="M1584.551,838.307c-8.621,0-16.419-2.003-23.397-6.009c-6.981-4.006-12.472-9.468-16.479-16.387
				c-4.005-6.92-6.008-14.626-6.008-23.124c0-8.618,2.004-16.356,6.008-23.215c4.007-6.857,9.498-12.291,16.479-16.296
				c6.978-4.006,14.776-6.009,23.397-6.009c6.797,0,13.139,1.306,19.028,3.915c5.886,2.612,10.893,6.344,15.021,11.198
				l-13.109,13.292c-2.549-3.033-5.616-5.308-9.196-6.828c-3.581-1.516-7.496-2.276-11.743-2.276c-4.979,0-9.378,1.123-13.2,3.368
				c-3.824,2.247-6.801,5.312-8.923,9.195c-2.125,3.886-3.186,8.438-3.186,13.656c0,5.098,1.061,9.621,3.186,13.565
				c2.123,3.946,5.099,7.041,8.923,9.286c3.823,2.247,8.221,3.368,13.2,3.368c4.248,0,8.163-0.756,11.743-2.276
				c3.579-1.516,6.647-3.793,9.196-6.828l13.109,13.292c-4.127,4.857-9.134,8.589-15.021,11.198
				C1597.69,837.001,1591.348,838.307,1584.551,838.307z"/>
			<path style="fill:#262626;" d="M1632.984,836.486V705.388h20.03v131.098H1632.984z M1688.519,836.486l-36.962-44.609
				l36.78-42.789h23.851l-42.243,48.069l0.912-11.471l43.153,50.801H1688.519z"/>
			<path style="fill:#262626;" d="M1762.262,838.307c-8.741,0-16.6-1.972-23.58-5.918c-6.982-3.944-12.504-9.378-16.568-16.296
				c-4.069-6.919-6.1-14.686-6.1-23.306c0-8.618,2.002-16.356,6.009-23.215c4.004-6.857,9.436-12.291,16.296-16.296
				c6.857-4.006,14.475-6.009,22.85-6.009c8.132,0,15.323,1.884,21.577,5.644c6.251,3.765,11.167,8.922,14.749,15.477
				c3.578,6.555,5.37,14.02,5.37,22.396c0,1.457-0.091,2.944-0.273,4.461c-0.182,1.519-0.456,3.186-0.819,5.008h-71.739v-16.387
				h61.36l-7.466,6.555c-0.243-5.34-1.274-9.832-3.096-13.474c-1.82-3.642-4.4-6.432-7.738-8.375
				c-3.34-1.941-7.437-2.914-12.29-2.914c-5.098,0-9.531,1.093-13.292,3.277c-3.764,2.185-6.676,5.252-8.74,9.195
				c-2.065,3.946-3.096,8.649-3.096,14.112c0,5.462,1.093,10.259,3.277,14.384c2.185,4.129,5.281,7.315,9.287,9.559
				c4.006,2.247,8.618,3.369,13.839,3.369c4.488,0,8.648-0.788,12.472-2.367c3.824-1.576,7.069-3.883,9.741-6.919l12.746,12.927
				c-4.25,4.979-9.408,8.74-15.476,11.289C1775.491,837.032,1769.057,838.307,1762.262,838.307z"/>
			<path style="fill:#262626;" d="M1809.056,767.295v-18.208h61.908v18.208H1809.056z M1829.995,836.486V712.671h20.03v123.815
				H1829.995z"/>
			<path style="fill:#262626;" d="M1912.296,838.307c-4.856,0-9.531-0.638-14.02-1.912c-4.494-1.274-8.621-3.096-12.382-5.463
				c-3.764-2.367-7.041-5.249-9.832-8.648l12.746-12.746c3.031,3.522,6.523,6.162,10.469,7.921c3.943,1.761,8.403,2.64,13.383,2.64
				c4.488,0,7.889-0.666,10.196-2.003c2.304-1.334,3.459-3.277,3.459-5.826c0-2.669-1.092-4.734-3.277-6.191
				c-2.184-1.457-5.007-2.7-8.466-3.732c-3.459-1.03-7.101-2.094-10.925-3.186c-3.823-1.093-7.465-2.578-10.925-4.461
				c-3.459-1.881-6.281-4.461-8.466-7.739c-2.184-3.277-3.277-7.525-3.277-12.745c0-5.582,1.303-10.379,3.915-14.384
				c2.608-4.006,6.31-7.101,11.106-9.286c4.796-2.185,10.53-3.278,17.207-3.278c7.038,0,13.262,1.246,18.664,3.733
				c5.4,2.489,9.923,6.222,13.564,11.198l-12.746,12.745c-2.548-3.155-5.461-5.522-8.739-7.101
				c-3.277-1.577-7.041-2.367-11.289-2.367c-4.007,0-7.103,0.609-9.287,1.82c-2.185,1.215-3.277,2.976-3.277,5.281
				c0,2.429,1.092,4.31,3.277,5.644c2.184,1.337,5.007,2.489,8.466,3.459c3.46,0.973,7.103,2.034,10.925,3.186
				c3.824,1.155,7.466,2.731,10.925,4.734s6.282,4.674,8.466,8.012c2.185,3.34,3.277,7.679,3.277,13.018
				c0,8.498-2.975,15.235-8.922,20.211C1930.563,835.82,1922.493,838.307,1912.296,838.307z"/>
		</g>
	</g>
	<g>
		<g>
			<path style="fill:#1677FF;" d="M857.369,738.729c0.066-3.966-1.59-7.838-4.208-10.783c-2.738-3.041-6.419-4.993-10.208-6.41
				c-0.308-10.378-2.092-20.384-5.146-29.82c-1.021-3.439-2.222-6.821-3.776-10.056c-0.354-0.76-0.716-1.518-1.08-2.275
				c-1.007-2.153-2.081-4.268-3.224-6.34c-3.202-5.945-6.836-11.654-11.166-16.848c-5.674-6.69-12.082-12.779-19.031-18.138
				c-12.796-9.807-28.096-16.062-43.96-18.748c-5.689-1.066-11.535-1.685-17.503-1.815c-0.631-0.026-1.261-0.033-1.892-0.024
				c-0.162-0.001-0.323-0.006-0.485-0.006c-5.832,0-11.553,0.472-17.133,1.367c-4.261,0.588-8.492,1.379-12.638,2.552
				c-10.834,2.983-21.021,7.941-30.19,14.382c-17.208,11.614-30.864,28.087-39.006,47.45c-0.382,0.817-0.756,1.637-1.114,2.466
				c-1.203,3.069-2.212,6.206-3.065,9.387c-2.453,8.533-3.878,17.501-4.128,26.763c-5.229,1.806-10.202,5.284-12.488,10.471
				c-0.745,1.771-1.181,3.675-1.315,5.602c-0.031,0.317-0.049,0.634-0.049,0.953c0,0.043,0.005,0.085,0.006,0.128
				c-0.035,3.649,1.028,7.307,3.23,10.237c2.94,4.037,7.598,6.291,12.115,8.107c2.672,19.234,4.983,38.515,7.589,57.762
				c3.543,27.091,7.09,54.187,10.567,81.287c0.579,3.745,0.579,7.702,2.423,11.127c3.11,6.055,9.024,10.017,15.075,12.741
				c0.226,0.102,0.458,0.189,0.686,0.289c6.058-11.045,12.104-22.098,18.288-33.068c4.818-7.902,8.639-16.609,15.295-23.218
				c6.115-6.359,13.94-11.003,22.395-13.471c-11.643-5.448-19.712-17.262-19.712-30.965c0-18.875,15.301-34.176,34.176-34.176
				c18.875,0,34.176,15.301,34.176,34.176c0,13.606-7.953,25.353-19.462,30.852c8.178,2.321,15.8,6.597,21.86,12.586
				c3.758,3.607,6.904,7.833,9.444,12.383c8.181,14.618,16.331,29.248,24.508,43.862c5.583-2.728,10.99-6.371,14.138-11.855
				c1.463-2.395,1.477-5.274,1.934-7.956c4.954-37.583,9.518-75.204,14.228-112.815c1.322-9.824,2.315-19.704,3.792-29.5
				c4.013-1.491,8.092-3.265,11.155-6.352c3.117-2.976,5.058-7.261,4.88-11.607c0.01-0.185,0.025-0.369,0.025-0.555
				C857.375,738.814,857.37,738.772,857.369,738.729z M823.248,744.865c-8.601,3.844-17.978,5.519-27.218,7.053
				c-9.339,1.43-18.74,2.301-28.154,2.95c-4.253-0.038-8.474,0.706-12.732,0.475c-10.487,0.522-21.008,0.659-31.495,0
				c-4.569,0.221-9.095-0.598-13.658-0.48c-12.237-0.899-24.47-1.981-36.614-3.849c-8.873-1.454-17.879-3.063-26.117-6.808
				c-2.268-1.256-5.382-2.795-5.472-5.726c0.875-2.729,3.811-3.971,6.173-5.175c8.511-3.703,17.719-5.425,26.818-7.006
				c12.774-1.962,25.623-3.298,38.505-4.136c4.747-0.329,9.513-0.296,14.27-0.602c8.728-0.089,17.479-0.334,26.197,0.231
				c12.699,0.452,25.392,1.303,37.983,3.124c10.374,1.684,20.852,3.538,30.643,7.481c2.847,1.379,6.328,2.818,7.471,6.032
				C829.364,741.783,825.925,743.43,823.248,744.865z M735.971,704.603c-38.44,0-72.702,5.042-94.947,12.909
				c0.201-2.434,0.522-4.861,0.802-7.284c1.096-8.309,3.609-16.392,7.076-24.005c2.065-4.611,4.823-8.855,7.613-13.047
				c3.209-4.733,6.648-9.316,10.501-13.541c3.5-4.192,7.707-7.697,11.927-11.127c0.22-0.176,0.445-0.347,0.667-0.521
				c5.904-4.323,12.28-7.948,19.075-10.822c7.129-3.015,14.531-5.12,22.127-6.311c7.648-0.923,15.417-0.89,23.106-0.54
				c5.542,0.569,11.085,1.284,16.505,2.649c0.235,0.054,0.467,0.115,0.701,0.171c3.927,1.089,7.789,2.43,11.574,4.031
				c11.321,4.788,21.491,11.646,30.227,20.382c8.736,8.736,15.594,18.906,20.382,30.227c2.681,6.338,4.64,12.893,5.88,19.607
				c0.106,0.621,0.215,1.241,0.31,1.863c0.085,0.48,0.166,0.96,0.245,1.441c0.327,2.209,0.573,4.435,0.743,6.674
				C808.229,709.58,774.162,704.603,735.971,704.603z"/>
		</g>
	</g>
</g>
</svg>
