<?xml version="1.0" encoding="iso-8859-1"?>
<!-- Generator: Adobe Illustrator 28.2.0, SVG Export Plug-In . SVG Version: 6.00 Build 0)  -->
<svg version="1.1" id="Layer_1" xmlns="http://www.w3.org/2000/svg" xmlns:xlink="http://www.w3.org/1999/xlink" x="0px" y="0px"
	 viewBox="0 0 396.031 456.292" style="enable-background:new 0 0 396.031 456.292;" xml:space="preserve">
<g>
	<g>
		<path style="fill:#1677FF;" d="M319.414,197.875c0.066-3.966-1.59-7.838-4.208-10.783c-2.738-3.041-6.419-4.993-10.208-6.41
			c-0.308-10.378-2.092-20.384-5.146-29.82c-1.021-3.439-2.222-6.821-3.776-10.056c-0.354-0.76-0.716-1.518-1.08-2.275
			c-1.007-2.153-2.081-4.268-3.224-6.34c-3.202-5.945-6.836-11.654-11.166-16.848c-5.674-6.69-12.082-12.779-19.031-18.138
			c-12.796-9.807-28.096-16.062-43.96-18.748c-5.689-1.066-11.535-1.685-17.503-1.815c-0.631-0.026-1.261-0.033-1.892-0.024
			c-0.162-0.001-0.323-0.006-0.485-0.006c-5.832,0-11.553,0.472-17.133,1.367c-4.261,0.588-8.492,1.379-12.638,2.552
			c-10.834,2.983-21.021,7.942-30.19,14.382c-17.208,11.614-30.864,28.087-39.006,47.45c-0.382,0.817-0.756,1.637-1.114,2.466
			c-1.203,3.069-2.212,6.206-3.065,9.387c-2.454,8.533-3.878,17.501-4.128,26.763c-5.229,1.806-10.202,5.284-12.488,10.471
			c-0.745,1.771-1.181,3.675-1.314,5.602c-0.031,0.317-0.049,0.634-0.049,0.953c0,0.043,0.005,0.085,0.006,0.128
			c-0.035,3.649,1.028,7.307,3.23,10.237c2.941,4.037,7.598,6.291,12.115,8.107c2.672,19.234,4.983,38.515,7.589,57.762
			c3.543,27.091,7.09,54.187,10.567,81.287c0.579,3.745,0.579,7.702,2.423,11.127c3.11,6.055,9.024,10.017,15.075,12.741
			c0.226,0.102,0.458,0.189,0.686,0.289c6.058-11.045,12.104-22.098,18.288-33.068c4.818-7.902,8.639-16.61,15.295-23.218
			c6.115-6.359,13.94-11.003,22.395-13.471c-11.643-5.448-19.712-17.262-19.712-30.965c0-18.875,15.301-34.176,34.176-34.176
			s34.176,15.301,34.176,34.176c0,13.606-7.953,25.353-19.462,30.852c8.178,2.321,15.8,6.597,21.86,12.586
			c3.758,3.607,6.904,7.833,9.444,12.383c8.181,14.618,16.331,29.248,24.508,43.862c5.583-2.728,10.99-6.371,14.138-11.855
			c1.463-2.395,1.477-5.274,1.934-7.956c4.954-37.583,9.518-75.204,14.228-112.815c1.322-9.824,2.315-19.704,3.792-29.5
			c4.013-1.491,8.092-3.265,11.155-6.352c3.117-2.976,5.058-7.261,4.88-11.607c0.01-0.185,0.025-0.369,0.025-0.555
			C319.42,197.96,319.414,197.918,319.414,197.875z M285.292,204.011c-8.601,3.844-17.978,5.519-27.218,7.053
			c-9.339,1.43-18.74,2.301-28.154,2.95c-4.253-0.038-8.474,0.706-12.732,0.475c-10.487,0.522-21.008,0.659-31.495,0
			c-4.569,0.221-9.095-0.598-13.658-0.48c-12.238-0.899-24.47-1.981-36.614-3.849c-8.873-1.454-17.879-3.063-26.117-6.808
			c-2.268-1.256-5.382-2.795-5.472-5.726c0.875-2.729,3.811-3.971,6.173-5.175c8.511-3.703,17.719-5.425,26.818-7.006
			c12.774-1.962,25.623-3.298,38.505-4.136c4.747-0.329,9.513-0.296,14.27-0.602c8.728-0.089,17.479-0.334,26.197,0.231
			c12.699,0.452,25.393,1.303,37.983,3.124c10.374,1.684,20.852,3.538,30.643,7.481c2.847,1.379,6.328,2.818,7.471,6.032
			C291.409,200.929,287.969,202.576,285.292,204.011z M198.015,163.749c-38.44,0-72.702,5.042-94.947,12.909
			c0.201-2.434,0.522-4.861,0.802-7.284c1.096-8.309,3.609-16.392,7.076-24.005c2.065-4.611,4.823-8.855,7.613-13.047
			c3.209-4.733,6.648-9.316,10.501-13.541c3.5-4.192,7.707-7.697,11.927-11.127c0.22-0.176,0.445-0.347,0.667-0.521
			c5.904-4.323,12.28-7.948,19.075-10.822c7.129-3.015,14.531-5.12,22.127-6.311c7.648-0.923,15.417-0.89,23.106-0.54
			c5.542,0.569,11.085,1.284,16.505,2.649c0.235,0.054,0.467,0.115,0.701,0.171c3.927,1.088,7.789,2.43,11.574,4.031
			c11.321,4.788,21.491,11.646,30.227,20.382c8.736,8.736,15.594,18.906,20.382,30.227c2.681,6.338,4.64,12.893,5.88,19.607
			c0.106,0.621,0.215,1.241,0.31,1.863c0.085,0.48,0.166,0.96,0.245,1.441c0.327,2.209,0.573,4.435,0.743,6.674
			C270.273,168.727,236.207,163.749,198.015,163.749z"/>
	</g>
</g>
</svg>
